<svg xmlns="http://www.w3.org/2000/svg" width="780" height="620" font-family="system-ui, -apple-system, sans-serif">
  <defs>
    <clipPath id="bubble-clip-user">
      <rect x="0" y="0" width="400" height="200" rx="12"/>
    </clipPath>
    <clipPath id="msg-area">
      <rect x="0" y="57" width="780" height="467"/>
    </clipPath>
  </defs>

  <!-- App background -->
  <rect width="780" height="620" fill="#0f0f13"/>

  <!-- Header -->
  <rect width="780" height="57" fill="#0f0f13"/>
  <line x1="0" y1="57" x2="780" y2="57" stroke="#23232f" stroke-width="1"/>
  <text x="24" y="35" fill="#e0e0e8" font-size="16" font-weight="600" letter-spacing="0.3">Voice Agent</text>

  <!-- Header buttons -->
  <rect x="530" y="16" width="140" height="28" rx="7" fill="none" stroke="#32323e" stroke-width="1"/>
  <text x="600" y="34" fill="#999" font-size="12" text-anchor="middle">New Conversation</text>
  <rect x="682" y="16" width="72" height="28" rx="7" fill="none" stroke="#32323e" stroke-width="1"/>
  <text x="718" y="34" fill="#999" font-size="12" text-anchor="middle">Config</text>

  <!-- Messages area -->
  <rect x="0" y="57" width="780" height="467" fill="#0f0f13"/>

  <!-- Message 1: user -->
  <rect x="432" y="84" width="308" height="52" rx="12" fill="#5b4cdb"/>
  <rect x="728" y="117" width="12" height="16" rx="2" fill="#5b4cdb"/>
  <text x="448" y="106" fill="#fff" font-size="13">Hey, who wrote Moby Dick?</text>

  <!-- Message 2: assistant -->
  <rect x="40" y="158" width="380" height="68" rx="12" fill="#1c1c28"/>
  <rect x="40" y="174" width="12" height="16" rx="2" fill="#1c1c28"/>
  <text x="56" y="182" fill="#ddd" font-size="13">Herman Melville wrote Moby Dick,</text>
  <text x="56" y="200" fill="#ddd" font-size="13">published in 1851.</text>

  <!-- Message 3: user -->
  <rect x="432" y="250" width="308" height="52" rx="12" fill="#5b4cdb"/>
  <rect x="728" y="283" width="12" height="16" rx="2" fill="#5b4cdb"/>
  <text x="448" y="272" fill="#fff" font-size="13">What else did he write?</text>

  <!-- Message 4: assistant (last, streaming done) -->
  <rect x="40" y="324" width="440" height="84" rx="12" fill="#1c1c28"/>
  <rect x="40" y="340" width="12" height="16" rx="2" fill="#1c1c28"/>
  <text x="56" y="350" fill="#ddd" font-size="13">He also wrote Bartleby the Scrivener,</text>
  <text x="56" y="370" fill="#ddd" font-size="13">Billy Budd, and Typee, among others.</text>
  <text x="56" y="390" fill="#ddd" font-size="13">He had a rich literary career.</text>

  <!-- Footer -->
  <rect x="0" y="524" width="780" height="96" fill="#0f0f13"/>
  <line x1="0" y1="524" x2="780" y2="524" stroke="#23232f" stroke-width="1"/>

  <!-- Status bar -->
  <circle cx="297" cy="542" r="4" fill="#3fa55e"/>
  <text x="307" y="547" fill="#3fa55e" font-size="11">Ready</text>

  <!-- Input row -->
  <rect x="24" y="556" width="696" height="40" rx="8" fill="#1c1c28" stroke="#32323e" stroke-width="1"/>
  <text x="40" y="581" fill="#4a4a5a" font-size="13">Type a message or tap 🎤…</text>

  <!-- Mic button -->
  <circle cx="746" cy="576" r="19" fill="#1c1c28" stroke="#32323e" stroke-width="1"/>
  <text x="746" y="582" fill="#e0e0e8" font-size="14" text-anchor="middle">🎤</text>
</svg>
